<svg width="100" height="60" viewBox="0 0 100 60" xmlns="http://www.w3.org/2000/svg">
    <defs>
        <style>
            .flag-slice { stroke: #333; stroke-width: 0.5; }
            .flag-symbol { fill: #000; stroke: #fff; stroke-width: 0.5; }
        </style>
    </defs>
    <polygon points="0.0,0 10.0,0 5.0,60" fill="#0984E3" class="flag-slice"/>
    <polygon points="10.0,0 20.0,0 15.0,60" fill="#FF6B6B" class="flag-slice"/>
    <polygon points="20.0,0 30.0,0 25.0,60" fill="#4ECDC4" class="flag-slice"/>
    <polygon points="30.0,0 40.0,0 35.0,60" fill="#45B7D1" class="flag-slice"/>
    <polygon points="40.0,0 50.0,0 45.0,60" fill="#96CEB4" class="flag-slice"/>
    <polygon points="50.0,0 60.0,0 55.0,60" fill="#FFEAA7" class="flag-slice"/>
    <polygon points="60.0,0 70.0,0 65.0,60" fill="#DDA0DD" class="flag-slice"/>
    <polygon points="70.0,0 80.0,0 75.0,60" fill="#98D8C8" class="flag-slice"/>
    <polygon points="80.0,0 90.0,0 85.0,60" fill="#F7DC6F" class="flag-slice"/>
    <polygon points="90.0,0 100.0,0 95.0,60" fill="#BB8FCE" class="flag-slice"/>
</svg>